<?xml version="1.0" encoding="UTF-8"?>
<svg id="_图层_1" data-name="图层 1" xmlns="http://www.w3.org/2000/svg" xmlns:xlink="http://www.w3.org/1999/xlink" viewBox="0 0 141 113.33">
  <defs>
    <style>
      .cls-1 {
        stroke: #00913a;
      }

      .cls-1, .cls-2, .cls-3, .cls-4, .cls-5 {
        fill: none;
      }

      .cls-1, .cls-2, .cls-4, .cls-5 {
        stroke-miterlimit: 8;
      }

      .cls-1, .cls-3 {
        stroke-width: 4px;
      }

      .cls-6 {
        fill: #fff;
      }

      .cls-2 {
        stroke: #8f338e;
      }

      .cls-2, .cls-4, .cls-5 {
        stroke-width: 2px;
      }

      .cls-7 {
        fill: #666;
      }

      .cls-8 {
        stroke-linejoin: round;
        stroke-width: .46px;
      }

      .cls-8, .cls-9 {
        fill: #e73828;
      }

      .cls-8, .cls-5 {
        stroke: #e73828;
      }

      .cls-3 {
        stroke: url(#_未命名的渐变_344);
        stroke-linecap: round;
        stroke-miterlimit: 10;
      }

      .cls-4 {
        stroke: #036eb7;
      }
    </style>
    <linearGradient id="_未命名的渐变_344" data-name="未命名的渐变 344" x1="19.8" y1="70.11" x2="121.16" y2="70.11" gradientUnits="userSpaceOnUse">
      <stop offset="0" stop-color="#ff2f1f"/>
      <stop offset=".04" stop-color="#fe431a"/>
      <stop offset=".12" stop-color="#fd6c12"/>
      <stop offset=".21" stop-color="#fc8f0c"/>
      <stop offset=".29" stop-color="#fba906"/>
      <stop offset=".38" stop-color="#fbbc02"/>
      <stop offset=".47" stop-color="#fbc800"/>
      <stop offset=".56" stop-color="#fbcc00"/>
      <stop offset=".8" stop-color="#f0932e"/>
      <stop offset=".89" stop-color="#e9652d"/>
      <stop offset="1" stop-color="#e4352b"/>
    </linearGradient>
  </defs>
  <g>
    <path class="cls-7" d="M18.63,96.01v-12.88h4.62c1.04,0,1.84.06,2.39.18.77.17,1.42.48,1.97.92.71.57,1.24,1.31,1.59,2.2.35.89.53,1.91.53,3.06,0,.98-.12,1.85-.36,2.6-.24.76-.54,1.38-.92,1.88s-.78.88-1.22,1.17-.98.5-1.6.65-1.34.22-2.16.22h-4.84ZM20.4,94.49h2.86c.88,0,1.58-.08,2.08-.24s.9-.38,1.2-.67c.42-.4.75-.95.98-1.63s.35-1.51.35-2.48c0-1.35-.23-2.38-.69-3.11-.46-.72-1.02-1.21-1.68-1.45-.48-.18-1.24-.26-2.3-.26h-2.82v9.84Z"/>
    <path class="cls-7" d="M38.61,93l1.7.2c-.27.96-.77,1.7-1.49,2.22s-1.65.79-2.78.79c-1.42,0-2.55-.42-3.38-1.26s-1.25-2.02-1.25-3.54.42-2.79,1.26-3.66,1.93-1.3,3.28-1.3,2.36.42,3.18,1.27c.82.85,1.24,2.04,1.24,3.59,0,.09,0,.23,0,.42h-7.25c.06,1.03.36,1.81.91,2.36s1.22.82,2.03.82c.6,0,1.12-.15,1.55-.46.43-.3.77-.79,1.02-1.46ZM33.2,90.44h5.43c-.07-.79-.28-1.37-.62-1.77-.52-.61-1.21-.91-2.04-.91-.76,0-1.39.24-1.91.73-.52.49-.8,1.14-.86,1.95Z"/>
    <path class="cls-7" d="M49.03,93l1.7.2c-.27.96-.77,1.7-1.49,2.22s-1.65.79-2.78.79c-1.42,0-2.55-.42-3.38-1.26s-1.25-2.02-1.25-3.54.42-2.79,1.26-3.66,1.93-1.3,3.28-1.3,2.36.42,3.18,1.27c.82.85,1.24,2.04,1.24,3.59,0,.09,0,.23,0,.42h-7.25c.06,1.03.36,1.81.91,2.36s1.22.82,2.03.82c.6,0,1.12-.15,1.55-.46.43-.3.77-.79,1.02-1.46ZM43.62,90.44h5.43c-.07-.79-.28-1.37-.62-1.77-.52-.61-1.21-.91-2.04-.91-.76,0-1.39.24-1.91.73-.52.49-.8,1.14-.86,1.95Z"/>
    <path class="cls-7" d="M52.8,99.58v-12.91h1.5v1.21c.35-.47.75-.83,1.2-1.07s.99-.36,1.62-.36c.83,0,1.56.21,2.2.62.63.41,1.11.99,1.44,1.74.32.75.49,1.57.49,2.46,0,.96-.18,1.81-.54,2.58s-.88,1.35-1.56,1.76-1.4.61-2.15.61c-.55,0-1.04-.11-1.48-.33s-.79-.5-1.08-.84v4.54h-1.65ZM54.29,91.39c0,1.2.25,2.09.76,2.66s1.12.86,1.84.86,1.36-.3,1.88-.89c.52-.59.78-1.52.78-2.76s-.25-2.08-.76-2.67-1.12-.89-1.83-.89-1.32.31-1.86.94-.81,1.55-.81,2.75Z"/>
    <path class="cls-7" d="M63.49,96.01v-12.88h1.78v5.29h6.97v-5.29h1.78v12.88h-1.78v-6.07h-6.97v6.07h-1.78Z"/>
    <path class="cls-7" d="M76.12,92.14v-1.59h5.06v1.59h-5.06Z"/>
    <path class="cls-7" d="M89.31,96.01v-1.18c-.62.93-1.52,1.39-2.72,1.39-.77,0-1.49-.21-2.14-.62s-1.15-.98-1.51-1.72-.54-1.58-.54-2.54.16-1.78.48-2.54.81-1.34,1.46-1.74c.65-.4,1.37-.61,2.17-.61.59,0,1.11.12,1.56.36s.83.55,1.12.93v-4.62h1.64v12.88h-1.53ZM84.1,91.35c0,1.2.26,2.09.79,2.68s1.14.89,1.86.89,1.33-.28,1.83-.85.75-1.43.75-2.59c0-1.28-.26-2.21-.77-2.81-.51-.6-1.14-.9-1.89-.9s-1.34.29-1.83.86-.74,1.48-.74,2.72Z"/>
    <path class="cls-7" d="M92.81,91.34c0-1.73.5-3.01,1.5-3.84.84-.69,1.85-1.04,3.06-1.04,1.34,0,2.43.42,3.28,1.26s1.27,2,1.27,3.48c0,1.2-.19,2.15-.56,2.83-.38.69-.92,1.22-1.64,1.6-.72.38-1.5.57-2.35.57-1.36,0-2.46-.42-3.3-1.26-.84-.84-1.26-2.04-1.26-3.62ZM94.5,91.34c0,1.2.27,2.09.81,2.69s1.23.89,2.05.89,1.5-.3,2.04-.9.81-1.51.81-2.73c0-1.15-.27-2.03-.82-2.62-.55-.59-1.22-.89-2.04-.89s-1.51.3-2.05.89-.81,1.49-.81,2.68Z"/>
    <path class="cls-7" d="M110.19,92.59l1.62.2c-.18,1.07-.63,1.91-1.36,2.52s-1.62.91-2.69.91c-1.33,0-2.4-.42-3.21-1.25-.81-.83-1.21-2.03-1.21-3.59,0-1.01.17-1.89.52-2.65s.88-1.32,1.59-1.7c.71-.38,1.48-.57,2.32-.57,1.06,0,1.92.26,2.59.77.67.51,1.1,1.24,1.29,2.18l-1.6.24c-.15-.63-.42-1.1-.81-1.42-.39-.32-.86-.47-1.4-.47-.83,0-1.5.29-2.02.86s-.78,1.48-.78,2.71.25,2.17.75,2.73c.5.57,1.15.85,1.96.85.65,0,1.19-.19,1.62-.57s.71-.97.82-1.76Z"/>
    <path class="cls-7" d="M113.23,96.01v-12.88h1.65v7.35l3.9-3.8h2.13l-3.72,3.46,4.09,5.87h-2.03l-3.21-4.77-1.16,1.07v3.7h-1.65Z"/>
  </g>
  <g>
    <polyline class="cls-1" points="111.71 71.09 98.41 45.37 85.85 45.37"/>
    <polyline class="cls-2" points="54.55 48.48 46.12 48.48 34.12 70.58 29.36 70.58"/>
    <polyline class="cls-4" points="53.78 45.37 44.58 45.37 31.48 69.38 26.28 69.38"/>
    <polyline class="cls-5" points="53.32 42.63 42.9 42.63 28.07 69.48 22.18 69.48"/>
    <g>
      <rect class="cls-6" x="54.59" y="39.02" width="31.8" height="11.42"/>
      <polygon class="cls-6" points="54.14 23.01 66.08 23.01 60.11 65.28 48.16 65.28 54.14 23.01"/>
      <polygon class="cls-6" points="79.66 23.25 91.59 23.25 85.62 65.53 73.67 65.53 79.66 23.25"/>
    </g>
    <g>
      <polygon class="cls-8" points="72.72 14.73 83.83 21.91 83.36 22.89 72.68 17.38 62.04 22.89 61.61 21.91 72.72 14.73 72.72 14.73"/>
      <g>
        <polyline class="cls-9" points="56.14 25.48 63.27 25.48 57.97 62.82 50.97 62.82"/>
        <polyline class="cls-9" points="81.66 25.72 88.78 25.72 83.48 63.06 76.48 63.06"/>
        <rect class="cls-9" x="57.18" y="41.53" width="26.6" height="6.41"/>
      </g>
    </g>
    <line class="cls-3" x1="21.8" y1="70.11" x2="119.16" y2="70.11"/>
  </g>
</svg>