<?xml version="1.0" encoding="UTF-8"?>
<svg id="_图层_1" data-name="图层 1" xmlns="http://www.w3.org/2000/svg" xmlns:xlink="http://www.w3.org/1999/xlink" viewBox="0 0 351.75 64.33">
  <defs>
    <style>
      .cls-1 {
        stroke: #00913a;
      }

      .cls-1, .cls-2, .cls-3, .cls-4, .cls-5 {
        fill: none;
      }

      .cls-1, .cls-2, .cls-4, .cls-5 {
        stroke-miterlimit: 8;
      }

      .cls-1, .cls-3 {
        stroke-width: 4px;
      }

      .cls-6 {
        fill: #fff;
      }

      .cls-2 {
        stroke: #8f338e;
      }

      .cls-2, .cls-4, .cls-5 {
        stroke-width: 2px;
      }

      .cls-7 {
        fill: #666;
      }

      .cls-8 {
        stroke-linejoin: round;
        stroke-width: .46px;
      }

      .cls-8, .cls-9 {
        fill: #e73828;
      }

      .cls-8, .cls-5 {
        stroke: #e73828;
      }

      .cls-3 {
        stroke: url(#_未命名的渐变_344);
        stroke-linecap: round;
        stroke-miterlimit: 10;
      }

      .cls-4 {
        stroke: #036eb7;
      }
    </style>
    <linearGradient id="_未命名的渐变_344" data-name="未命名的渐变 344" x1="6.69" y1="56.66" x2="108.05" y2="56.66" gradientUnits="userSpaceOnUse">
      <stop offset="0" stop-color="#ff2f1f"/>
      <stop offset=".04" stop-color="#fe431a"/>
      <stop offset=".12" stop-color="#fd6c12"/>
      <stop offset=".21" stop-color="#fc8f0c"/>
      <stop offset=".29" stop-color="#fba906"/>
      <stop offset=".38" stop-color="#fbbc02"/>
      <stop offset=".47" stop-color="#fbc800"/>
      <stop offset=".56" stop-color="#fbcc00"/>
      <stop offset=".8" stop-color="#f0932e"/>
      <stop offset=".89" stop-color="#e9652d"/>
      <stop offset="1" stop-color="#e4352b"/>
    </linearGradient>
  </defs>
  <g>
    <polyline class="cls-1" points="98.6 57.64 85.3 31.92 72.74 31.92"/>
    <polyline class="cls-2" points="41.44 35.03 33.01 35.03 21.01 57.13 16.25 57.13"/>
    <polyline class="cls-4" points="40.74 31.92 31.54 31.92 18.44 55.93 13.24 55.93"/>
    <polyline class="cls-5" points="40.21 29.18 29.79 29.18 14.96 56.02 9.08 56.02"/>
    <g>
      <rect class="cls-6" x="41.48" y="25.57" width="31.8" height="11.42"/>
      <polygon class="cls-6" points="41.04 9.56 52.97 9.56 47 51.83 35.05 51.83 41.04 9.56"/>
      <polygon class="cls-6" points="66.55 9.8 78.48 9.8 72.51 52.08 60.56 52.08 66.55 9.8"/>
    </g>
    <g>
      <polygon class="cls-8" points="59.61 1.28 70.72 8.45 70.25 9.44 59.57 3.93 48.93 9.44 48.5 8.45 59.61 1.28 59.61 1.28"/>
      <g>
        <polyline class="cls-9" points="43.03 12.03 50.16 12.03 44.86 49.36 37.86 49.36"/>
        <polyline class="cls-9" points="68.55 12.27 75.67 12.27 70.37 49.61 63.37 49.61"/>
        <rect class="cls-9" x="44.07" y="28.07" width="26.6" height="6.41"/>
      </g>
    </g>
    <line class="cls-3" x1="8.69" y1="56.66" x2="106.05" y2="56.66"/>
  </g>
  <g>
    <path class="cls-7" d="M123.41,44.78v-25.72h7.64c4.06,0,7.43,1.13,10.12,3.4,2.69,2.27,4.04,5.31,4.04,9.13s-1.35,7.18-4.04,9.58c-2.69,2.4-6.16,3.6-10.4,3.6h-7.36ZM126.87,22.02v19.82h3.89c3.4,0,6.05-.89,7.96-2.67,1.91-1.78,2.86-4.28,2.86-7.49s-.98-5.62-2.94-7.24c-1.96-1.62-4.54-2.42-7.73-2.42h-4.04Z"/>
    <path class="cls-7" d="M165.52,36.43h-13.38c.06,1.96.62,3.47,1.68,4.54,1.06,1.07,2.54,1.6,4.44,1.6,2.14,0,4.11-.66,5.89-1.98v2.91c-1.68,1.14-3.91,1.71-6.69,1.71s-4.92-.84-6.47-2.52c-1.55-1.68-2.32-4.02-2.32-7.01,0-2.81.85-5.13,2.55-6.96,1.7-1.83,3.81-2.74,6.34-2.74s4.45.77,5.86,2.32c1.41,1.54,2.11,3.71,2.11,6.48v1.64ZM162.13,33.82c-.01-1.66-.42-2.94-1.23-3.85-.81-.91-1.94-1.36-3.41-1.36-1.35,0-2.52.48-3.5,1.44s-1.6,2.22-1.86,3.77h9.99Z"/>
    <path class="cls-7" d="M185.61,36.43h-13.38c.06,1.96.62,3.47,1.68,4.54,1.06,1.07,2.54,1.6,4.44,1.6,2.14,0,4.11-.66,5.89-1.98v2.91c-1.68,1.14-3.91,1.71-6.69,1.71s-4.92-.84-6.47-2.52c-1.55-1.68-2.32-4.02-2.32-7.01,0-2.81.85-5.13,2.55-6.96,1.7-1.83,3.81-2.74,6.34-2.74s4.45.77,5.86,2.32c1.41,1.54,2.11,3.71,2.11,6.48v1.64ZM182.22,33.82c-.01-1.66-.42-2.94-1.23-3.85-.81-.91-1.94-1.36-3.41-1.36-1.35,0-2.52.48-3.5,1.44s-1.6,2.22-1.86,3.77h9.99Z"/>
    <path class="cls-7" d="M193.51,42.19v11.04h-3.39v-26.81h3.39v3.17h.07c1.5-2.4,3.69-3.6,6.57-3.6,2.44,0,4.36.82,5.75,2.47s2.08,3.85,2.08,6.62c0,3.05-.79,5.51-2.36,7.36-1.57,1.85-3.69,2.78-6.35,2.78-2.45,0-4.35-1.01-5.69-3.02h-.07ZM193.49,37.21c0,1.49.5,2.75,1.5,3.78,1,1.02,2.26,1.54,3.77,1.54,1.8,0,3.2-.66,4.22-1.99,1.01-1.33,1.52-3.17,1.52-5.51,0-1.98-.47-3.53-1.42-4.66-.94-1.12-2.24-1.69-3.87-1.69s-3.04.57-4.11,1.71c-1.07,1.14-1.61,2.6-1.61,4.38v2.44Z"/>
    <path class="cls-7" d="M233.63,44.78h-3.46v-11.59h-13.55v11.59h-3.46v-25.72h3.46v11.17h13.55v-11.17h3.46v25.72Z"/>
    <path class="cls-7" d="M249.96,35.85h-10.18v-2.51h10.18v2.51Z"/>
    <path class="cls-7" d="M272.02,44.78h-3.39v-3.05h-.07c-1.39,2.32-3.56,3.49-6.5,3.49-2.42,0-4.34-.83-5.77-2.48-1.43-1.65-2.14-3.89-2.14-6.7,0-3.03.81-5.46,2.42-7.3,1.61-1.83,3.72-2.75,6.33-2.75s4.49.97,5.67,2.92h.07v-11.31h3.39v27.18ZM268.65,33.86c0-1.47-.5-2.7-1.51-3.69-1.01-.99-2.25-1.49-3.73-1.49-1.8,0-3.21.65-4.25,1.93-1.04,1.29-1.56,3.05-1.56,5.27,0,2.05.5,3.67,1.5,4.86,1,1.19,2.33,1.78,3.98,1.78s2.97-.58,4.01-1.75c1.04-1.17,1.56-2.62,1.56-4.36v-2.56Z"/>
    <path class="cls-7" d="M276.79,35.8c0-3.03.88-5.43,2.64-7.18,1.76-1.75,4.15-2.63,7.17-2.63s5.12.84,6.75,2.53c1.63,1.69,2.45,4.02,2.45,7s-.87,5.24-2.61,7.02c-1.74,1.78-4.07,2.67-7,2.67s-5.14-.86-6.85-2.59-2.56-4-2.56-6.82ZM280.25,35.7c0,2.11.56,3.78,1.67,5,1.11,1.22,2.61,1.83,4.49,1.83s3.41-.59,4.43-1.78c1.01-1.19,1.52-2.9,1.52-5.12s-.51-3.95-1.52-5.15-2.49-1.79-4.43-1.79-3.4.63-4.5,1.88c-1.1,1.25-1.65,2.97-1.65,5.15Z"/>
    <path class="cls-7" d="M313.79,43.95c-1.46.84-3.23,1.26-5.29,1.26-2.77,0-4.99-.85-6.67-2.56-1.68-1.7-2.52-3.91-2.52-6.62,0-3.01.91-5.44,2.72-7.28,1.81-1.84,4.24-2.76,7.29-2.76,1.75,0,3.25.3,4.49.9v3.22c-1.35-.95-2.85-1.43-4.49-1.43-1.94,0-3.51.65-4.73,1.93-1.22,1.29-1.82,3.01-1.82,5.15s.57,3.77,1.72,4.96c1.15,1.2,2.69,1.79,4.64,1.79,1.65,0,3.2-.52,4.67-1.56v2.99Z"/>
    <path class="cls-7" d="M334.58,44.78h-4.62l-8.18-8.85h-.07v8.85h-3.39v-27.18h3.39v17.23h.07l7.76-8.42h4.36l-8.64,8.83,9.32,9.53Z"/>
  </g>
</svg>